<svg id="visual" viewBox="0 0 900 600" width="900" height="600" xmlns="http://www.w3.org/2000/svg" xmlns:xlink="http://www.w3.org/1999/xlink" version="1.1"><rect x="0" y="0" width="900" height="600" fill="#02090d"></rect><path d="M0 208L21.5 201C43 194 86 180 128.8 177C171.7 174 214.3 182 257.2 183.5C300 185 343 180 385.8 173C428.7 166 471.3 157 514.2 146.7C557 136.3 600 124.7 642.8 137C685.7 149.3 728.3 185.7 771.2 191C814 196.3 857 170.7 878.5 157.8L900 145L900 0L878.5 0C857 0 814 0 771.2 0C728.3 0 685.7 0 642.8 0C600 0 557 0 514.2 0C471.3 0 428.7 0 385.8 0C343 0 300 0 257.2 0C214.3 0 171.7 0 128.8 0C86 0 43 0 21.5 0L0 0Z" fill="#144590" stroke-linecap="round" stroke-linejoin="miter"></path></svg>